<mxfile host="app.diagrams.net" modified="2022-01-17T10:27:53.759Z" agent="5.0 (Windows NT 10.0; Win64; x64) AppleWebKit/537.36 (KHTML, like Gecko) Chrome/97.0.4692.71 Safari/537.36" etag="bncUCE1OMHs1N-ecx8Bf" version="16.2.7" type="github" pages="2">
  <diagram id="v1VxQ2sw37VamUpSr8ig" name="Page-1">
    <mxGraphModel dx="1022" dy="436" grid="1" gridSize="10" guides="1" tooltips="1" connect="1" arrows="1" fold="1" page="1" pageScale="1" pageWidth="827" pageHeight="1169" math="0" shadow="0">
      <root>
        <mxCell id="0" />
        <mxCell id="1" parent="0" />
        <mxCell id="a8V5NT0svntrEV2lBJVd-1" value="" style="rounded=1;whiteSpace=wrap;html=1;" vertex="1" parent="1">
          <mxGeometry x="30" y="70" width="120" height="60" as="geometry" />
        </mxCell>
      </root>
    </mxGraphModel>
  </diagram>
  <diagram id="1pewpSWLXCu5GKCrBu-D" name="Page-2">
    <mxGraphModel dx="1022" dy="436" grid="1" gridSize="10" guides="1" tooltips="1" connect="1" arrows="1" fold="1" page="1" pageScale="1" pageWidth="827" pageHeight="1169" math="0" shadow="0">
      <root>
        <mxCell id="Z5f7wbPdPSj-lDXhUOG9-0" />
        <mxCell id="Z5f7wbPdPSj-lDXhUOG9-1" parent="Z5f7wbPdPSj-lDXhUOG9-0" />
      </root>
    </mxGraphModel>
  </diagram>
</mxfile>
